<?xml version="1.0" standalone="no"?>
<!DOCTYPE svg PUBLIC "-//W3C//DTD SVG 20010904//EN"
 "http://www.w3.org/TR/2001/REC-SVG-20010904/DTD/svg10.dtd">
<svg version="1.0" xmlns="http://www.w3.org/2000/svg"
 width="729.000000pt" height="342.000000pt" viewBox="0 0 729.000000 342.000000"
 preserveAspectRatio="xMidYMid meet">

<g transform="translate(0.000000,342.000000) scale(0.100000,-0.100000)"
fill="#000000" stroke="none">
<path d="M3708 3053 c12 -2 32 -2 45 0 12 2 2 4 -23 4 -25 0 -35 -2 -22 -4z"/>
<path d="M3860 3036 c36 -7 69 -10 75 -7 16 8 -36 19 -90 19 l-50 0 65 -12z"/>
<path d="M3953 3024 c3 -3 43 -19 89 -35 46 -16 118 -50 161 -75 49 -28 85
-43 95 -39 20 8 -28 40 -126 85 -94 44 -242 87 -219 64z"/>
<path d="M4139 2860 c101 -54 106 -56 95 -39 -7 12 -165 89 -180 89 -5 0 33
-23 85 -50z"/>
<path d="M4312 2867 c-8 -9 8 -27 58 -69 187 -156 321 -405 351 -651 20 -162
-7 -385 -62 -506 -11 -24 -18 -50 -15 -58 3 -8 1 -11 -4 -8 -5 3 -19 -14 -31
-37 -38 -75 -101 -161 -173 -238 -69 -73 -64 -73 17 0 88 79 211 264 243 365
8 27 19 59 24 70 36 89 55 270 41 397 -12 104 -46 234 -86 324 -23 52 -80 151
-95 164 -3 3 -13 16 -22 31 -54 85 -228 238 -246 216z"/>
<path d="M4250 2802 c0 -4 26 -29 58 -57 214 -184 336 -443 333 -710 -2 -206
-35 -321 -151 -525 -11 -19 -45 -63 -76 -97 -30 -35 -52 -68 -49 -74 9 -13 41
17 107 98 83 104 146 230 181 357 17 64 21 110 22 216 0 152 -7 207 -37 300
-58 181 -169 340 -320 456 -57 44 -68 50 -68 36z"/>
<path d="M2872 2564 l-22 -15 0 -463 c0 -358 3 -466 13 -480 11 -15 39 -17
314 -16 166 0 303 -3 305 -7 2 -5 2 -34 0 -65 -3 -52 -9 -63 -47 -106 -33 -37
-41 -52 -33 -60 13 -13 442 -18 472 -6 24 9 20 23 -22 68 -32 35 -40 52 -46
100 -3 31 -4 62 -1 67 4 5 133 9 309 9 242 0 306 3 315 13 7 10 12 146 13 443
l3 429 32 -65 c17 -36 42 -102 56 -148 24 -76 26 -96 23 -235 -3 -164 -16
-222 -77 -355 -82 -179 -257 -344 -446 -420 -55 -22 -70 -31 -61 -40 18 -18
34 -15 122 27 182 86 317 215 396 377 18 38 38 78 43 88 5 11 20 58 33 105 20
71 24 108 23 209 -1 67 -5 125 -10 128 -5 3 -7 9 -4 14 15 25 -64 238 -114
309 -12 16 -21 41 -21 54 0 15 -9 32 -22 41 -24 17 -36 14 -22 -7 5 -7 2 -5
-8 5 -15 17 -57 18 -755 18 -652 0 -741 -2 -761 -16z m1516 -411 l2 -363 -745
0 -745 0 0 358 c0 197 3 362 7 365 3 4 338 6 742 5 l736 -3 3 -362z"/>
<path d="M3422 2283 l3 -98 98 -3 97 -3 0 101 0 100 -100 0 -101 0 3 -97z"/>
<path d="M3660 2286 c0 -52 3 -97 8 -99 11 -7 52 11 52 24 0 25 46 73 87 91
37 16 43 23 43 48 l0 30 -95 0 -95 0 0 -94z"/>
<path d="M3427 2144 c-4 -4 -7 -24 -7 -45 0 -29 5 -39 20 -44 11 -3 20 -13 20
-20 0 -8 14 -30 31 -50 28 -31 37 -35 80 -35 l49 0 0 95 0 95 -72 0 c-40 0
-82 3 -93 6 -11 3 -24 2 -28 -2z"/>
<path d="M3660 2045 l0 -95 95 0 c94 0 95 0 95 24 0 19 -7 26 -30 31 -38 8
-85 55 -101 100 -10 26 -19 35 -36 35 -22 0 -23 -3 -23 -95z"/>
<path d="M3105 1421 c38 -42 134 -115 141 -109 3 3 -10 16 -28 29 -18 13 -58
43 -88 68 -43 35 -48 38 -25 12z"/>
<path d="M4285 1284 c-68 -61 -66 -71 5 -19 55 40 74 61 63 68 -4 3 -35 -19
-68 -49z"/>
<path d="M3260 1301 c0 -15 137 -81 217 -106 112 -34 148 -38 162 -21 10 12 5
16 -36 21 -26 3 -74 12 -107 21 -32 8 -61 12 -64 9 -3 -2 -11 0 -18 6 -23 19
-154 78 -154 70z"/>
<path d="M4205 1231 c-6 -5 -41 -26 -80 -46 -38 -20 -59 -33 -45 -29 39 11
115 51 129 68 14 17 11 22 -4 7z"/>
<path d="M3870 1205 c-36 -7 -97 -13 -136 -14 -50 -1 -75 -5 -84 -16 -26 -31
286 -12 318 19 6 7 -17 27 -28 24 -3 0 -34 -6 -70 -13z"/>
<path d="M2923 680 c-80 -19 -118 -77 -117 -181 0 -46 6 -75 20 -100 23 -40
93 -79 144 -79 47 0 101 29 120 63 14 26 14 29 -4 43 -18 13 -22 11 -49 -21
-24 -29 -35 -35 -68 -35 -78 0 -123 84 -99 185 19 81 108 114 163 59 21 -21
29 -24 46 -14 12 6 21 14 21 19 0 17 -50 53 -87 62 -43 10 -46 10 -90 -1z"/>
<path d="M3623 683 c-75 -10 -131 -106 -120 -205 13 -103 65 -153 164 -153 74
0 107 20 141 85 42 83 18 205 -48 251 -27 19 -87 29 -137 22z m96 -59 c68 -48
65 -211 -5 -243 -92 -41 -165 37 -147 159 11 84 90 127 152 84z"/>
<path d="M3978 683 c-47 -7 -78 -46 -78 -97 0 -37 5 -48 30 -70 17 -14 47 -28
68 -32 63 -11 92 -32 92 -66 0 -52 -87 -66 -140 -22 -30 26 -31 26 -45 8 -20
-27 -19 -30 18 -56 26 -19 45 -23 100 -23 65 0 70 2 98 33 57 63 30 151 -54
172 -86 22 -106 32 -112 51 -16 49 65 77 125 44 18 -9 29 -10 37 -3 18 15 16
36 -4 46 -23 12 -100 20 -135 15z"/>
<path d="M4328 683 c-16 -2 -43 -19 -62 -36 -80 -76 -71 -235 17 -301 22 -16
43 -21 92 -21 108 0 160 59 160 180 0 77 -19 123 -65 156 -26 19 -96 30 -142
22z m107 -65 c53 -46 55 -169 4 -220 -60 -60 -150 -20 -164 74 -19 126 79 215
160 146z"/>
<path d="M2180 506 c0 -149 2 -175 16 -180 42 -16 44 -12 44 121 0 84 3 124
10 117 7 -7 90 -227 90 -239 0 0 11 -2 24 -3 22 -1 27 8 67 123 24 69 47 125
51 125 5 0 8 -53 8 -119 0 -113 1 -119 22 -124 12 -3 25 -4 30 -1 4 3 8 84 8
180 l0 174 -43 0 -42 0 -45 -132 c-25 -73 -49 -132 -55 -131 -5 1 -19 30 -30
65 -12 35 -31 93 -44 131 l-23 67 -44 0 -44 0 0 -174z"/>
<path d="M2660 502 l0 -178 25 -2 25 -2 0 180 0 180 -25 0 -25 0 0 -178z"/>
<path d="M3180 501 l0 -178 28 1 c27 1 27 2 30 79 l3 77 34 0 c44 0 59 -16 85
-95 20 -62 23 -65 51 -63 16 1 29 3 29 3 0 21 -48 137 -63 154 -15 16 -18 25
-10 28 38 13 56 40 56 83 0 35 -6 48 -27 67 -24 21 -37 23 -122 23 l-94 0 0
-179z m170 119 c22 -22 25 -42 10 -71 -9 -15 -22 -19 -65 -19 l-55 0 0 55 0
55 45 0 c32 0 51 -6 65 -20z"/>
<path d="M4630 500 c0 -103 4 -180 9 -180 33 0 41 14 41 70 0 88 1 90 81 90
62 0 69 2 69 20 0 17 -8 19 -72 22 l-72 3 -4 34 c-2 19 -1 44 2 57 6 23 11 24
86 24 73 0 80 2 80 20 0 19 -7 20 -110 20 l-110 0 0 -180z"/>
<path d="M4880 661 c0 -17 8 -20 53 -23 l52 -3 3 -159 c3 -158 3 -158 25 -152
12 3 25 6 30 6 4 0 7 70 7 155 l0 155 50 0 c43 0 50 3 50 20 0 19 -7 20 -135
20 -127 0 -135 -1 -135 -19z"/>
<path d="M2248 193 c7 -3 16 -2 19 1 4 3 -2 6 -13 5 -11 0 -14 -3 -6 -6z"/>
<path d="M2492 193 c27 -4 27 -6 31 -81 l3 -77 2 77 c2 75 2 77 30 80 15 3 0
4 -33 4 -33 0 -48 -1 -33 -3z"/>
<path d="M2853 135 c0 -38 2 -53 4 -32 2 20 2 52 0 70 -2 17 -4 1 -4 -38z"/>
<path d="M3052 118 l2 -83 3 77 c4 75 5 77 31 81 25 4 24 4 -5 6 l-33 1 2 -82z"/>
<path d="M3436 183 c-6 -14 -5 -15 5 -6 7 7 10 15 7 18 -3 3 -9 -2 -12 -12z"/>
<path d="M3812 118 l2 -83 3 77 4 77 32 4 c31 4 31 4 -5 5 l-38 2 2 -82z"/>
<path d="M4203 135 c0 -38 2 -53 4 -32 2 20 2 52 0 70 -2 17 -4 1 -4 -38z"/>
<path d="M4400 192 c0 -5 14 -7 30 -4 17 2 30 6 30 8 0 2 -13 4 -30 4 -16 0
-30 -4 -30 -8z"/>
<path d="M4723 193 c9 -2 25 -2 35 0 9 3 1 5 -18 5 -19 0 -27 -2 -17 -5z"/>
<path d="M2215 179 c-4 -6 -5 -12 -2 -15 2 -3 7 2 10 11 7 17 1 20 -8 4z"/>
<path d="M3142 175 c9 -11 18 -38 21 -60 l4 -40 1 41 c2 31 -3 45 -20 60 -23
19 -23 19 -6 -1z"/>
<path d="M3898 163 c5 -21 7 -23 10 -9 2 10 0 22 -6 28 -6 6 -7 0 -4 -19z"/>
<path d="M4480 186 c0 -2 8 -10 18 -17 15 -13 16 -12 3 4 -13 16 -21 21 -21
13z"/>
<path d="M4703 120 c0 -36 2 -50 4 -32 2 17 2 47 0 65 -2 17 -4 3 -4 -33z"/>
<path d="M3360 150 c6 -11 13 -20 16 -20 2 0 0 9 -6 20 -6 11 -13 20 -16 20
-2 0 0 -9 6 -20z"/>
<path d="M4513 115 c0 -22 2 -30 4 -17 2 12 2 30 0 40 -3 9 -5 -1 -4 -23z"/>
<path d="M4822 120 c0 -14 2 -19 5 -12 2 6 2 18 0 25 -3 6 -5 1 -5 -13z"/>
<path d="M5040 80 c4 -43 5 -43 8 -10 2 19 8 40 12 45 6 7 3 11 -8 11 -14 0
-16 -8 -12 -46z"/>
<path d="M2270 116 c0 -2 7 -7 16 -10 8 -3 12 -2 9 4 -6 10 -25 14 -25 6z"/>
<path d="M3388 80 c2 -22 5 -40 7 -40 2 0 5 18 7 40 2 24 -1 40 -7 40 -6 0 -9
-16 -7 -40z"/>
<path d="M3907 90 c3 -11 -1 -28 -8 -38 -13 -15 -12 -16 4 -3 18 14 23 46 8
55 -5 4 -7 -3 -4 -14z"/>
<path d="M4101 79 c-1 -9 7 -23 17 -30 15 -12 16 -12 6 1 -6 8 -14 22 -17 30
-5 13 -6 12 -6 -1z"/>
<path d="M2750 73 c0 -6 8 -17 18 -24 16 -13 16 -13 2 6 -8 11 -16 22 -17 24
-2 2 -3 0 -3 -6z"/>
<path d="M4794 58 l-19 -23 23 19 c12 11 22 21 22 23 0 8 -8 2 -26 -19z"/>
<path d="M3136 55 c-11 -8 -15 -15 -9 -15 6 0 16 7 23 15 16 19 11 19 -14 0z"/>
<path d="M4486 55 c-11 -8 -15 -15 -9 -15 6 0 16 7 23 15 16 19 11 19 -14 0z"/>
<path d="M2830 50 c-9 -6 -10 -10 -3 -10 6 0 15 5 18 10 8 12 4 12 -15 0z"/>
<path d="M4180 50 c-9 -6 -10 -10 -3 -10 6 0 15 5 18 10 8 12 4 12 -15 0z"/>
</g>
</svg>
